<svg id="compass" xmlns="http://www.w3.org/2000/svg" width="24.485" height="24.485" viewBox="0 0 24.485 24.485">
  <g id="Group_104" data-name="Group 104">
    <g id="Group_103" data-name="Group 103">
      <path id="Path_54" data-name="Path 54" d="M12.243,0A12.243,12.243,0,1,0,24.485,12.243,12.257,12.257,0,0,0,12.243,0Zm0,22.356A10.114,10.114,0,1,1,22.356,12.243,10.125,10.125,0,0,1,12.243,22.356Z" fill="#707070"/>
    </g>
  </g>
  <g id="Group_106" data-name="Group 106" transform="translate(6.387 6.387)">
    <g id="Group_105" data-name="Group 105">
      <path id="Path_55" data-name="Path 55" d="M139.539,128.148a.528.528,0,0,0-.587-.113l-7.452,3.194a.533.533,0,0,0-.28.28l-3.194,7.452a.532.532,0,0,0,.113.587.54.54,0,0,0,.377.154.56.56,0,0,0,.21-.043l7.452-3.194a.537.537,0,0,0,.28-.28l3.194-7.452A.533.533,0,0,0,139.539,128.148Zm-5.7,6.763a1.065,1.065,0,1,1,1.065-1.065A1.066,1.066,0,0,1,133.84,134.911Z" transform="translate(-127.984 -127.991)" fill="#707070"/>
    </g>
  </g>
</svg>
