<svg id="calendar" xmlns="http://www.w3.org/2000/svg" width="26.662" height="27.266" viewBox="0 0 26.662 27.266">
  <g id="Group_151" data-name="Group 151">
    <path id="Path_84" data-name="Path 84" d="M120.432,258.86a.619.619,0,0,0-.619-.618h-2.16a.618.618,0,0,0-.619.618v2.159a.619.619,0,0,0,.619.619h2.16a.619.619,0,0,0,.619-.619V258.86Z" transform="translate(-110.8 -243.818)" fill="#707070"/>
    <path id="Path_85" data-name="Path 85" d="M217.067,258.86a.618.618,0,0,0-.618-.618h-2.16a.618.618,0,0,0-.619.618v2.159a.619.619,0,0,0,.619.619h2.16a.619.619,0,0,0,.618-.619Z" transform="translate(-202.038 -243.818)" fill="#707070"/>
    <path id="Path_86" data-name="Path 86" d="M313.7,258.86a.618.618,0,0,0-.619-.618h-2.16a.618.618,0,0,0-.619.618v2.159a.619.619,0,0,0,.619.619h2.16a.619.619,0,0,0,.619-.619Z" transform="translate(-293.268 -243.818)" fill="#707070"/>
    <path id="Path_87" data-name="Path 87" d="M120.432,355.494a.618.618,0,0,0-.619-.619h-2.16a.618.618,0,0,0-.619.619v2.159a.619.619,0,0,0,.619.619h2.16a.619.619,0,0,0,.619-.619v-2.159Z" transform="translate(-110.8 -335.053)" fill="#707070"/>
    <path id="Path_88" data-name="Path 88" d="M217.067,355.494a.618.618,0,0,0-.618-.619h-2.16a.618.618,0,0,0-.619.619v2.159a.619.619,0,0,0,.619.619h2.16a.619.619,0,0,0,.618-.619Z" transform="translate(-202.038 -335.053)" fill="#707070"/>
    <path id="Path_89" data-name="Path 89" d="M313.7,355.494a.618.618,0,0,0-.618-.619h-2.16a.618.618,0,0,0-.619.619v2.159a.619.619,0,0,0,.619.619h2.16a.619.619,0,0,0,.618-.619v-2.159Z" transform="translate(-293.268 -335.053)" fill="#707070"/>
    <path id="Path_90" data-name="Path 90" d="M29.7,54.154v3.3A2.694,2.694,0,0,1,27,60.144H25.3a2.708,2.708,0,0,1-2.716-2.692v-3.31H14.9v3.31a2.708,2.708,0,0,1-2.716,2.692h-1.7a2.694,2.694,0,0,1-2.7-2.692v-3.3A2.455,2.455,0,0,0,5.411,56.6V75.925a2.456,2.456,0,0,0,2.444,2.458H29.629a2.459,2.459,0,0,0,2.444-2.458V56.6A2.455,2.455,0,0,0,29.7,54.154Zm-.791,20.568a1.057,1.057,0,0,1-1.057,1.057H9.585a1.057,1.057,0,0,1-1.057-1.057V64.737a1.057,1.057,0,0,1,1.057-1.057H27.852a1.057,1.057,0,0,1,1.057,1.057v9.984Z" transform="translate(-5.411 -51.118)" fill="#707070"/>
    <path id="Path_91" data-name="Path 91" d="M80.476,7.258h1.685a.926.926,0,0,0,.926-.925V.926A.926.926,0,0,0,82.161,0H80.476a.926.926,0,0,0-.926.926V6.333A.925.925,0,0,0,80.476,7.258Z" transform="translate(-75.409)" fill="#707070"/>
    <path id="Path_92" data-name="Path 92" d="M345.384,7.258h1.685a.925.925,0,0,0,.926-.925V.926A.926.926,0,0,0,347.069,0h-1.685a.926.926,0,0,0-.926.926V6.333A.926.926,0,0,0,345.384,7.258Z" transform="translate(-325.52)" fill="#707070"/>
  </g>
</svg>
