<svg xmlns="http://www.w3.org/2000/svg" width="24.95" height="17.153" viewBox="0 0 24.95 17.153">
  <g id="email" transform="translate(0 -80)">
    <g id="Group_59" data-name="Group 59" transform="translate(16.539 83.162)">
      <g id="Group_58" data-name="Group 58">
        <path id="Path_38" data-name="Path 38" d="M339.392,150.438l8.411,5.317V144.9Z" transform="translate(-339.392 -144.896)" fill="#707070"/>
      </g>
    </g>
    <g id="Group_61" data-name="Group 61" transform="translate(0 83.162)">
      <g id="Group_60" data-name="Group 60">
        <path id="Path_39" data-name="Path 39" d="M0,144.9v10.859l8.411-5.317Z" transform="translate(0 -144.896)" fill="#707070"/>
      </g>
    </g>
    <g id="Group_63" data-name="Group 63" transform="translate(0.047 80)">
      <g id="Group_62" data-name="Group 62" transform="translate(0 0)">
        <path id="Path_40" data-name="Path 40" d="M24.3,80H2.473A1.54,1.54,0,0,0,.96,81.327l12.428,8.188,12.428-8.188A1.54,1.54,0,0,0,24.3,80Z" transform="translate(-0.96 -80)" fill="#707070"/>
      </g>
    </g>
    <g id="Group_65" data-name="Group 65" transform="translate(0.05 89.645)">
      <g id="Group_64" data-name="Group 64" transform="translate(0 0)">
        <path id="Path_41" data-name="Path 41" d="M16.084,277.922l-2.206,1.453a.783.783,0,0,1-.858,0l-2.206-1.455-9.79,6.192a1.538,1.538,0,0,0,1.509,1.316H24.364a1.538,1.538,0,0,0,1.509-1.316Z" transform="translate(-1.024 -277.92)" fill="#707070"/>
      </g>
    </g>
  </g>
</svg>
