<svg xmlns="http://www.w3.org/2000/svg" width="27.747" height="24.17" viewBox="0 0 27.747 24.17">
  <g id="length" transform="translate(0 -33)">
    <path id="Path_51" data-name="Path 51" d="M79.38,187.194a.813.813,0,0,0-1.15,1.15l.238.238H71.435v-2.807l.238.238a.813.813,0,0,0,1.15-1.15L71.2,183.238a.813.813,0,0,0-1.15,0l-1.626,1.626a.813.813,0,0,0,1.15,1.15l.238-.238v2.807H62.776l.238-.238a.813.813,0,0,0-1.15-1.15l-1.626,1.626a.813.813,0,0,0,0,1.15l1.626,1.626a.813.813,0,1,0,1.15-1.15l-.238-.238h7.034v2.807l-.238-.238a.813.813,0,1,0-1.15,1.15l1.626,1.626a.813.813,0,0,0,1.15,0l1.626-1.626a.813.813,0,0,0-1.15-1.15l-.238.238v-2.807h7.034l-.238.238a.813.813,0,1,0,1.15,1.15l1.626-1.626a.813.813,0,0,0,0-1.15Z" transform="translate(-56.749 -141.871)" fill="#707070"/>
    <path id="Path_52" data-name="Path 52" d="M26.934,33H.813A.813.813,0,0,0,0,33.813V56.357a.813.813,0,0,0,.813.813H26.934a.813.813,0,0,0,.813-.813V33.813A.813.813,0,0,0,26.934,33Zm-.813,4.877H22.87V34.626h3.252Zm-4.877-3.252v3.252H1.626V34.626ZM1.626,55.544V39.5h24.5V55.544Z" fill="#707070"/>
  </g>
</svg>
