<svg xmlns="http://www.w3.org/2000/svg" width="23.95" height="24" viewBox="0 0 23.95 24">
  <g id="phone-call" transform="translate(-0.539)">
    <g id="Group_57" data-name="Group 57" transform="translate(0.539 0)">
      <path id="Path_37" data-name="Path 37" d="M23.861,17.614l-3.349-3.349A2.228,2.228,0,0,0,16.8,15.1a2.279,2.279,0,0,1-2.632,1.435c-2.392-.6-5.622-3.708-6.22-6.22A2.168,2.168,0,0,1,9.387,7.685a2.228,2.228,0,0,0,.837-3.708L6.875.628a2.389,2.389,0,0,0-3.23,0L1.373,2.9C-.9,5.293,1.612,11.633,7.234,17.255S19.2,25.508,21.588,23.116l2.273-2.273A2.389,2.389,0,0,0,23.861,17.614Z" transform="translate(-0.539 0)" fill="#707070"/>
    </g>
  </g>
</svg>
