<svg xmlns="http://www.w3.org/2000/svg" width="50" height="50" viewBox="0 0 50 50">
  <g id="printer" transform="translate(-1742 -1256)">
    <circle id="Ellipse_8" data-name="Ellipse 8" cx="25" cy="25" r="25" transform="translate(1742 1256)" fill="#707070"/>
    <g id="printer-2" data-name="printer" transform="translate(1752 1266.358)">
      <path id="Path_42" data-name="Path 42" d="M25.605,7.559h-.82V4.395A4.4,4.4,0,0,0,20.391,0H9.609A4.4,4.4,0,0,0,5.215,4.395V7.559h-.82A4.4,4.4,0,0,0,0,11.953v7.031a4.4,4.4,0,0,0,4.395,4.395h.82v3.984A2.64,2.64,0,0,0,7.852,30h14.3a2.64,2.64,0,0,0,2.637-2.637V23.379h.82A4.4,4.4,0,0,0,30,18.984V11.953A4.4,4.4,0,0,0,25.605,7.559ZM6.973,4.395A2.64,2.64,0,0,1,9.609,1.758H20.391a2.64,2.64,0,0,1,2.637,2.637V7.559H6.973ZM23.027,27.363a.88.88,0,0,1-.879.879H7.852a.88.88,0,0,1-.879-.879V18.691H23.027Zm5.215-8.379a2.64,2.64,0,0,1-2.637,2.637h-.82v-2.93h.527a.879.879,0,0,0,0-1.758H4.688a.879.879,0,1,0,0,1.758h.527v2.93h-.82a2.64,2.64,0,0,1-2.637-2.637V11.953A2.64,2.64,0,0,1,4.395,9.316H25.605a2.64,2.64,0,0,1,2.637,2.637Z" fill="#fff"/>
      <path id="Path_43" data-name="Path 43" d="M206.756,353h-4.848a.909.909,0,1,0,0,1.818h4.848a.909.909,0,1,0,0-1.818Z" transform="translate(-189.333 -332.36)" fill="#fff"/>
      <path id="Path_44" data-name="Path 44" d="M206.756,417h-4.848a.909.909,0,1,0,0,1.818h4.848a.909.909,0,1,0,0-1.818Z" transform="translate(-189.333 -392.757)" fill="#fff"/>
      <path id="Path_45" data-name="Path 45" d="M68.817,193H65.909a.909.909,0,1,0,0,1.818h2.909a.909.909,0,0,0,0-1.818Z" transform="translate(-61.061 -181.715)" fill="#fff"/>
    </g>
  </g>
</svg>
